STARTFONT 2.1
FONT -Monotype-Gill Sans-Bold-I-Normal--14-140-72-72-P-69-ISO8859-1
SIZE 14 72 72
FONTBOUNDINGBOX 21 17 -6 -3

STARTPROPERTIES 22
FOUNDRY "Monotype"
FAMILY_NAME "Gill Sans"
WEIGHT_NAME "Bold"
SLANT "I"
SETWIDTH_NAME "Normal"
ADD_STYLE_NAME ""
PIXEL_SIZE 14
POINT_SIZE 140
RESOLUTION_X 72
RESOLUTION_Y 72
SPACING "P"
AVERAGE_WIDTH 69
CHARSET_REGISTRY "ISO8859"
CHARSET_ENCODING "1"
FULL_NAME "GillSans-BoldItalic"
COPYRIGHT "Copyright (c) 1991 The Monotype Corporation plc."
WEIGHT 10
X_HEIGHT 7
QUAD_WIDTH 9
DEFAULT_CHAR 32
FONT_DESCENT 4
FONT_ASCENT 13
ENDPROPERTIES

CHARS 190

STARTCHAR space
ENCODING 32
SWIDTH 278 0
DWIDTH 4 0
BBX 1 1 0 0
BITMAP
00
ENDCHAR

STARTCHAR exclam
ENCODING 33
SWIDTH 260 0
DWIDTH 4 0
BBX 3 10 0 0
BITMAP
60
60
60
60
40
40
40
00
00
C0
ENDCHAR

STARTCHAR quotedbl
ENCODING 34
SWIDTH 479 0
DWIDTH 7 0
BBX 5 2 1 8
BITMAP
D8
D8
ENDCHAR

STARTCHAR numbersign
ENCODING 35
SWIDTH 584 0
DWIDTH 9 0
BBX 8 11 0 -1
BITMAP
33
33
33
FF
66
66
66
FF
6C
6C
CC
ENDCHAR

STARTCHAR dollar
ENCODING 36
SWIDTH 490 0
DWIDTH 7 0
BBX 6 10 0 0
BITMAP
3C
74
70
70
1C
1C
BC
F8
20
20
ENDCHAR

STARTCHAR percent
ENCODING 37
SWIDTH 719 0
DWIDTH 10 0
BBX 9 10 0 0
BITMAP
7180
9300
9A00
7400
0C00
0B00
1480
3480
2480
4380
ENDCHAR

STARTCHAR ampersand
ENCODING 38
SWIDTH 729 0
DWIDTH 10 0
BBX 10 10 0 0
BITMAP
0700
0D80
0980
0F80
7E00
ED80
CD80
C580
E700
79C0
ENDCHAR

STARTCHAR quoteright
ENCODING 39
SWIDTH 260 0
DWIDTH 4 0
BBX 3 3 1 7
BITMAP
60
60
C0
ENDCHAR

STARTCHAR parenleft
ENCODING 40
SWIDTH 344 0
DWIDTH 5 0
BBX 5 13 1 -3
BITMAP
18
30
60
60
C0
C0
C0
C0
C0
C0
C0
40
60
ENDCHAR

STARTCHAR parenright
ENCODING 41
SWIDTH 344 0
DWIDTH 5 0
BBX 5 13 0 -3
BITMAP
30
30
30
18
18
18
18
30
30
30
60
60
C0
ENDCHAR

STARTCHAR asterisk
ENCODING 42
SWIDTH 479 0
DWIDTH 7 0
BBX 6 6 1 4
BITMAP
30
B4
DC
30
EC
30
ENDCHAR

STARTCHAR plus
ENCODING 43
SWIDTH 584 0
DWIDTH 8 0
BBX 8 8 0 1
BITMAP
18
18
18
FF
FF
18
18
18
ENDCHAR

STARTCHAR comma
ENCODING 44
SWIDTH 260 0
DWIDTH 4 0
BBX 3 3 0 -2
BITMAP
60
60
C0
ENDCHAR

STARTCHAR minus
ENCODING 45
SWIDTH 584 0
DWIDTH 8 0
BBX 7 2 1 4
BITMAP
FE
FE
ENDCHAR

STARTCHAR period
ENCODING 46
SWIDTH 260 0
DWIDTH 4 0
BBX 2 2 0 0
BITMAP
C0
C0
ENDCHAR

STARTCHAR slash
ENCODING 47
SWIDTH 281 0
DWIDTH 4 0
BBX 5 13 0 -3
BITMAP
18
10
30
30
20
20
60
60
40
40
C0
C0
80
ENDCHAR

STARTCHAR zero
ENCODING 48
SWIDTH 531 0
DWIDTH 7 0
BBX 6 10 1 0
BITMAP
38
6C
6C
CC
CC
CC
CC
CC
D8
70
ENDCHAR

STARTCHAR one
ENCODING 49
SWIDTH 531 0
DWIDTH 7 0
BBX 3 10 2 0
BITMAP
60
60
60
60
60
60
C0
C0
C0
C0
ENDCHAR

STARTCHAR two
ENCODING 50
SWIDTH 531 0
DWIDTH 7 0
BBX 6 10 0 0
BITMAP
78
4C
0C
0C
1C
18
38
30
70
FC
ENDCHAR

STARTCHAR three
ENCODING 51
SWIDTH 531 0
DWIDTH 7 0
BBX 6 10 0 0
BITMAP
78
4C
0C
0C
3C
1C
0C
0C
9C
F0
ENDCHAR

STARTCHAR four
ENCODING 52
SWIDTH 531 0
DWIDTH 7 0
BBX 6 10 0 0
BITMAP
0C
0C
1C
3C
6C
6C
DC
FC
18
18
ENDCHAR

STARTCHAR five
ENCODING 53
SWIDTH 531 0
DWIDTH 7 0
BBX 6 10 0 0
BITMAP
3C
3C
30
60
78
0C
0C
8C
FC
70
ENDCHAR

STARTCHAR six
ENCODING 54
SWIDTH 531 0
DWIDTH 7 0
BBX 6 10 1 0
BITMAP
1C
38
30
70
7C
EC
CC
CC
CC
78
ENDCHAR

STARTCHAR seven
ENCODING 55
SWIDTH 531 0
DWIDTH 7 0
BBX 6 10 1 0
BITMAP
FC
18
18
38
30
30
60
60
60
C0
ENDCHAR

STARTCHAR eight
ENCODING 56
SWIDTH 531 0
DWIDTH 7 0
BBX 7 10 1 0
BITMAP
3C
6C
66
6C
38
4C
CC
CC
CC
78
ENDCHAR

STARTCHAR nine
ENCODING 57
SWIDTH 531 0
DWIDTH 7 0
BBX 6 10 1 0
BITMAP
38
6C
CC
CC
CC
7C
18
38
30
60
ENDCHAR

STARTCHAR colon
ENCODING 58
SWIDTH 260 0
DWIDTH 4 0
BBX 3 7 0 0
BITMAP
60
60
00
00
00
C0
C0
ENDCHAR

STARTCHAR semicolon
ENCODING 59
SWIDTH 260 0
DWIDTH 4 0
BBX 4 8 0 -1
BITMAP
30
30
00
00
60
60
60
C0
ENDCHAR

STARTCHAR less
ENCODING 60
SWIDTH 584 0
DWIDTH 8 0
BBX 7 9 1 1
BITMAP
02
0E
3E
F0
C0
F0
3C
0E
02
ENDCHAR

STARTCHAR equal
ENCODING 61
SWIDTH 584 0
DWIDTH 8 0
BBX 7 5 1 2
BITMAP
FE
FE
00
FE
FE
ENDCHAR

STARTCHAR greater
ENCODING 62
SWIDTH 584 0
DWIDTH 8 0
BBX 7 9 1 1
BITMAP
80
E0
F8
1E
06
1E
F8
E0
80
ENDCHAR

STARTCHAR question
ENCODING 63
SWIDTH 323 0
DWIDTH 5 0
BBX 5 10 0 0
BITMAP
F0
90
18
30
70
60
C0
00
00
C0
ENDCHAR

STARTCHAR at
ENCODING 64
SWIDTH 979 0
DWIDTH 14 0
BBX 14 13 0 -3
BITMAP
0FE0
1830
77F8
6C6C
CC6C
D84C
D84C
D8D8
D8D8
6FEC
6008
3830
0FC0
ENDCHAR

STARTCHAR A
ENCODING 65
SWIDTH 625 0
DWIDTH 9 0
BBX 9 10 0 0
BITMAP
0E00
0E00
1E00
1A00
1B00
3300
3300
7F00
6300
C380
ENDCHAR

STARTCHAR B
ENCODING 66
SWIDTH 635 0
DWIDTH 9 0
BBX 8 10 1 0
BITMAP
7E
66
63
66
7C
62
63
C3
C7
FE
ENDCHAR

STARTCHAR C
ENCODING 67
SWIDTH 688 0
DWIDTH 10 0
BBX 9 10 1 0
BITMAP
1F80
3000
6000
C000
C000
C000
C000
C000
6100
3F00
ENDCHAR

STARTCHAR D
ENCODING 68
SWIDTH 750 0
DWIDTH 11 0
BBX 9 10 1 0
BITMAP
7E00
6300
6180
6180
6180
6180
E180
C380
C700
FF00
ENDCHAR

STARTCHAR E
ENCODING 69
SWIDTH 583 0
DWIDTH 8 0
BBX 7 10 1 0
BITMAP
7E
60
60
60
7C
60
E0
C0
C0
FE
ENDCHAR

STARTCHAR F
ENCODING 70
SWIDTH 490 0
DWIDTH 7 0
BBX 7 10 1 0
BITMAP
7E
60
60
60
7C
60
E0
C0
C0
C0
ENDCHAR

STARTCHAR G
ENCODING 71
SWIDTH 740 0
DWIDTH 10 0
BBX 10 10 1 0
BITMAP
0FC0
3800
6000
E000
C000
C780
C180
E180
6180
1F00
ENDCHAR

STARTCHAR H
ENCODING 72
SWIDTH 792 0
DWIDTH 11 0
BBX 10 10 1 0
BITMAP
60C0
60C0
60C0
60C0
7FC0
61C0
6180
C180
C180
C180
ENDCHAR

STARTCHAR I
ENCODING 73
SWIDTH 302 0
DWIDTH 4 0
BBX 3 10 1 0
BITMAP
60
60
60
60
60
60
E0
C0
C0
C0
ENDCHAR

STARTCHAR J
ENCODING 74
SWIDTH 302 0
DWIDTH 4 0
BBX 5 13 0 -3
BITMAP
18
18
18
18
18
30
30
30
30
30
30
60
E0
ENDCHAR

STARTCHAR K
ENCODING 75
SWIDTH 646 0
DWIDTH 9 0
BBX 9 10 1 0
BITMAP
6380
6700
6E00
7C00
7800
6C00
CC00
C600
C700
C380
ENDCHAR

STARTCHAR L
ENCODING 76
SWIDTH 531 0
DWIDTH 7 0
BBX 7 10 1 0
BITMAP
60
60
60
60
60
60
60
C0
C0
FE
ENDCHAR

STARTCHAR M
ENCODING 77
SWIDTH 948 0
DWIDTH 13 0
BBX 13 10 0 0
BITMAP
1C30
1C70
3C70
3CF0
3EF0
6790
6798
6718
E718
C218
ENDCHAR

STARTCHAR N
ENCODING 78
SWIDTH 781 0
DWIDTH 11 0
BBX 10 10 1 0
BITMAP
70C0
70C0
78C0
78C0
6CC0
6F80
6780
C780
C380
C180
ENDCHAR

STARTCHAR O
ENCODING 79
SWIDTH 833 0
DWIDTH 12 0
BBX 10 10 1 0
BITMAP
1F00
3180
60C0
C0C0
C0C0
C0C0
C0C0
E1C0
6380
3E00
ENDCHAR

STARTCHAR P
ENCODING 80
SWIDTH 583 0
DWIDTH 8 0
BBX 8 10 1 0
BITMAP
7C
66
63
63
66
7C
60
C0
C0
C0
ENDCHAR

STARTCHAR Q
ENCODING 81
SWIDTH 833 0
DWIDTH 12 0
BBX 10 13 1 -3
BITMAP
1F00
3180
60C0
C0C0
C0C0
C0C0
C0C0
E180
7F80
3E00
1E00
0F80
0300
ENDCHAR

STARTCHAR R
ENCODING 82
SWIDTH 646 0
DWIDTH 9 0
BBX 8 10 1 0
BITMAP
7E
63
63
67
7E
6C
C6
C6
C7
C3
ENDCHAR

STARTCHAR S
ENCODING 83
SWIDTH 521 0
DWIDTH 7 0
BBX 7 10 0 0
BITMAP
3E
62
60
60
38
1C
0C
0C
8C
F8
ENDCHAR

STARTCHAR T
ENCODING 84
SWIDTH 619 0
DWIDTH 9 0
BBX 8 10 1 0
BITMAP
FF
18
18
18
18
38
30
30
30
30
ENDCHAR

STARTCHAR U
ENCODING 85
SWIDTH 750 0
DWIDTH 11 0
BBX 10 10 1 0
BITMAP
61C0
6180
6180
C180
C180
C180
C180
C300
6300
3E00
ENDCHAR

STARTCHAR V
ENCODING 86
SWIDTH 552 0
DWIDTH 8 0
BBX 8 10 1 0
BITMAP
C7
C6
CE
6C
7C
78
78
70
30
20
ENDCHAR

STARTCHAR W
ENCODING 87
SWIDTH 948 0
DWIDTH 13 0
BBX 13 10 1 0
BITMAP
C218
C630
C730
6F70
6F60
7B60
79C0
71C0
3180
2180
ENDCHAR

STARTCHAR X
ENCODING 88
SWIDTH 677 0
DWIDTH 9 0
BBX 11 10 0 0
BITMAP
30E0
39C0
1B80
0F00
0E00
0E00
1F00
3B00
7380
E1C0
ENDCHAR

STARTCHAR Y
ENCODING 89
SWIDTH 563 0
DWIDTH 8 0
BBX 8 10 1 0
BITMAP
C7
EE
6C
7C
78
30
30
30
30
70
ENDCHAR

STARTCHAR Z
ENCODING 90
SWIDTH 635 0
DWIDTH 9 0
BBX 10 10 0 0
BITMAP
3FC0
0380
0300
0600
0E00
0C00
1800
3800
7000
FF80
ENDCHAR

STARTCHAR bracketleft
ENCODING 91
SWIDTH 375 0
DWIDTH 5 0
BBX 5 13 0 -3
BITMAP
38
20
60
60
60
60
60
60
60
C0
C0
C0
F0
ENDCHAR

STARTCHAR backslash
ENCODING 92
SWIDTH 281 0
DWIDTH 4 0
BBX 3 10 1 0
BITMAP
C0
C0
C0
C0
40
40
40
60
60
60
ENDCHAR

STARTCHAR bracketright
ENCODING 93
SWIDTH 375 0
DWIDTH 5 0
BBX 6 13 0 -3
BITMAP
3C
18
18
18
18
18
18
38
30
30
30
30
F0
ENDCHAR

STARTCHAR asciicircum
ENCODING 94
SWIDTH 583 0
DWIDTH 8 0
BBX 7 5 1 5
BITMAP
38
38
7C
6C
CE
ENDCHAR

STARTCHAR underscore
ENCODING 95
SWIDTH 500 0
DWIDTH 8 0
BBX 8 1 0 -3
BITMAP
FF
ENDCHAR

STARTCHAR quoteleft
ENCODING 96
SWIDTH 260 0
DWIDTH 4 0
BBX 3 3 1 7
BITMAP
60
C0
E0
ENDCHAR

STARTCHAR a
ENCODING 97
SWIDTH 552 0
DWIDTH 8 0
BBX 7 7 1 0
BITMAP
3E
66
CC
CC
CC
CC
7C
ENDCHAR

STARTCHAR b
ENCODING 98
SWIDTH 542 0
DWIDTH 8 0
BBX 7 10 0 0
BITMAP
60
60
60
7C
6C
E6
C6
C6
CC
F8
ENDCHAR

STARTCHAR c
ENCODING 99
SWIDTH 469 0
DWIDTH 7 0
BBX 6 7 0 0
BITMAP
3C
60
C0
C0
C0
C8
78
ENDCHAR

STARTCHAR d
ENCODING 100
SWIDTH 542 0
DWIDTH 8 0
BBX 7 10 0 0
BITMAP
06
06
06
3E
66
CC
CC
CC
CC
3C
ENDCHAR

STARTCHAR e
ENCODING 101
SWIDTH 510 0
DWIDTH 7 0
BBX 6 7 0 0
BITMAP
38
6C
CC
FC
C0
C4
78
ENDCHAR

STARTCHAR f
ENCODING 102
SWIDTH 333 0
DWIDTH 5 0
BBX 6 13 0 -3
BITMAP
1C
30
20
F8
60
60
60
60
60
60
C0
C0
C0
ENDCHAR

STARTCHAR g
ENCODING 103
SWIDTH 490 0
DWIDTH 7 0
BBX 7 10 0 -3
BITMAP
3E
6C
6C
6C
38
60
7C
DC
CC
78
ENDCHAR

STARTCHAR h
ENCODING 104
SWIDTH 552 0
DWIDTH 8 0
BBX 7 10 0 0
BITMAP
60
60
60
7C
66
E6
CC
CC
CC
CC
ENDCHAR

STARTCHAR i
ENCODING 105
SWIDTH 260 0
DWIDTH 4 0
BBX 3 10 0 0
BITMAP
60
60
00
60
60
E0
C0
C0
C0
C0
ENDCHAR

STARTCHAR j
ENCODING 106
SWIDTH 260 0
DWIDTH 4 0
BBX 5 13 0 -3
BITMAP
10
18
00
30
30
30
30
30
20
60
60
E0
C0
ENDCHAR

STARTCHAR k
ENCODING 107
SWIDTH 509 0
DWIDTH 7 0
BBX 7 10 0 0
BITMAP
60
60
60
6E
7C
78
F8
D8
DC
CE
ENDCHAR

STARTCHAR l
ENCODING 108
SWIDTH 260 0
DWIDTH 4 0
BBX 3 10 0 0
BITMAP
60
60
60
60
60
60
C0
C0
C0
C0
ENDCHAR

STARTCHAR m
ENCODING 109
SWIDTH 823 0
DWIDTH 12 0
BBX 11 7 0 0
BITMAP
7DC0
6EC0
ECE0
CCC0
CCC0
CCC0
CCC0
ENDCHAR

STARTCHAR n
ENCODING 110
SWIDTH 552 0
DWIDTH 8 0
BBX 7 7 0 0
BITMAP
7C
66
E6
CE
CC
CC
CC
ENDCHAR

STARTCHAR o
ENCODING 111
SWIDTH 563 0
DWIDTH 8 0
BBX 7 7 0 0
BITMAP
3C
6C
C6
C6
C6
CC
78
ENDCHAR

STARTCHAR p
ENCODING 112
SWIDTH 583 0
DWIDTH 8 0
BBX 8 11 0 -3
BITMAP
30
3E
76
E3
63
66
66
7C
60
60
60
ENDCHAR

STARTCHAR q
ENCODING 113
SWIDTH 552 0
DWIDTH 8 0
BBX 7 10 0 -3
BITMAP
3E
66
CE
CC
CC
CC
7C
0C
0C
0C
ENDCHAR

STARTCHAR r
ENCODING 114
SWIDTH 365 0
DWIDTH 5 0
BBX 5 7 0 0
BITMAP
78
78
68
C0
C0
C0
C0
ENDCHAR

STARTCHAR s
ENCODING 115
SWIDTH 375 0
DWIDTH 5 0
BBX 5 7 0 0
BITMAP
78
48
60
70
38
90
F0
ENDCHAR

STARTCHAR t
ENCODING 116
SWIDTH 365 0
DWIDTH 5 0
BBX 5 8 0 0
BITMAP
30
F8
60
60
60
60
60
70
ENDCHAR

STARTCHAR u
ENCODING 117
SWIDTH 552 0
DWIDTH 8 0
BBX 7 7 1 0
BITMAP
E6
CC
CC
CC
CC
CC
FC
ENDCHAR

STARTCHAR v
ENCODING 118
SWIDTH 458 0
DWIDTH 6 0
BBX 6 7 0 0
BITMAP
CC
DC
78
78
70
70
60
ENDCHAR

STARTCHAR w
ENCODING 119
SWIDTH 729 0
DWIDTH 10 0
BBX 10 7 0 0
BITMAP
CCC0
CD80
FD80
7F00
7700
7600
6600
ENDCHAR

STARTCHAR x
ENCODING 120
SWIDTH 531 0
DWIDTH 7 0
BBX 8 7 0 0
BITMAP
77
3E
3C
18
3C
7C
E6
ENDCHAR

STARTCHAR y
ENCODING 121
SWIDTH 490 0
DWIDTH 7 0
BBX 7 10 0 -3
BITMAP
C6
EC
6C
78
78
30
30
60
60
C0
ENDCHAR

STARTCHAR z
ENCODING 122
SWIDTH 458 0
DWIDTH 6 0
BBX 6 7 0 0
BITMAP
7C
1C
18
30
70
60
FC
ENDCHAR

STARTCHAR braceleft
ENCODING 123
SWIDTH 385 0
DWIDTH 5 0
BBX 5 13 0 -3
BITMAP
18
30
30
30
30
30
20
F0
30
30
30
30
18
ENDCHAR

STARTCHAR bar
ENCODING 124
SWIDTH 281 0
DWIDTH 4 0
BBX 4 13 0 -3
BITMAP
30
30
30
30
20
60
60
60
60
40
C0
C0
C0
ENDCHAR

STARTCHAR braceright
ENCODING 125
SWIDTH 385 0
DWIDTH 5 0
BBX 5 13 0 -3
BITMAP
C0
60
60
60
60
60
20
78
60
60
60
60
C0
ENDCHAR

STARTCHAR asciitilde
ENCODING 126
SWIDTH 584 0
DWIDTH 8 0
BBX 7 2 1 5
BITMAP
F2
9E
ENDCHAR

STARTCHAR exclamdown
ENCODING 161
SWIDTH 260 0
DWIDTH 4 0
BBX 3 10 0 -3
BITMAP
60
00
00
40
40
40
C0
C0
C0
C0
ENDCHAR

STARTCHAR cent
ENCODING 162
SWIDTH 469 0
DWIDTH 7 0
BBX 6 13 0 -3
BITMAP
04
04
0C
3C
68
D0
D0
D0
F8
78
20
20
60
ENDCHAR

STARTCHAR sterling
ENCODING 163
SWIDTH 542 0
DWIDTH 8 0
BBX 6 10 1 0
BITMAP
0C
18
30
30
30
F8
60
60
E0
FC
ENDCHAR

STARTCHAR currency
ENCODING 164
SWIDTH 552 0
DWIDTH 8 0
BBX 8 8 0 1
BITMAP
42
FF
66
66
66
66
FF
42
ENDCHAR

STARTCHAR yen
ENCODING 165
SWIDTH 552 0
DWIDTH 8 0
BBX 9 10 0 0
BITMAP
6380
3700
3600
3C00
FF00
1800
1800
FE00
3000
3000
ENDCHAR

STARTCHAR brokenbar
ENCODING 166
SWIDTH 281 0
DWIDTH 4 0
BBX 4 13 0 -3
BITMAP
30
30
30
30
20
00
00
60
60
40
C0
C0
C0
ENDCHAR

STARTCHAR section
ENCODING 167
SWIDTH 552 0
DWIDTH 8 0
BBX 7 13 0 -3
BITMAP
1C
26
30
38
7C
CE
C6
E6
74
38
1C
C8
78
ENDCHAR

STARTCHAR dieresis
ENCODING 168
SWIDTH 333 0
DWIDTH 5 0
BBX 5 2 0 8
BITMAP
D8
D8
ENDCHAR

STARTCHAR copyright
ENCODING 169
SWIDTH 740 0
DWIDTH 10 0
BBX 10 10 0 0
BITMAP
1E00
6180
4E80
9140
9040
9040
9140
4E80
6180
1E00
ENDCHAR

STARTCHAR ordfeminine
ENCODING 170
SWIDTH 365 0
DWIDTH 5 0
BBX 5 4 1 6
BITMAP
78
D0
90
F0
ENDCHAR

STARTCHAR guillemotleft
ENCODING 171
SWIDTH 542 0
DWIDTH 8 0
BBX 8 7 0 0
BITMAP
66
36
33
33
77
66
CC
ENDCHAR

STARTCHAR logicalnot
ENCODING 172
SWIDTH 584 0
DWIDTH 8 0
BBX 7 5 1 2
BITMAP
FE
FE
06
06
06
ENDCHAR

STARTCHAR hyphen
ENCODING 173
SWIDTH 344 0
DWIDTH 5 0
BBX 5 2 0 2
BITMAP
F8
F0
ENDCHAR

STARTCHAR registered
ENCODING 174
SWIDTH 740 0
DWIDTH 10 0
BBX 10 10 0 0
BITMAP
1E00
6180
5E80
9240
9E40
9440
9640
5280
6180
1E00
ENDCHAR

STARTCHAR macron
ENCODING 175
SWIDTH 333 0
DWIDTH 5 0
BBX 6 1 2 9
BITMAP
FC
ENDCHAR

STARTCHAR degree
ENCODING 176
SWIDTH 396 0
DWIDTH 6 0
BBX 4 4 1 6
BITMAP
60
90
90
60
ENDCHAR

STARTCHAR plusminus
ENCODING 177
SWIDTH 584 0
DWIDTH 8 0
BBX 8 10 0 0
BITMAP
18
18
FF
FF
18
18
18
18
FF
FF
ENDCHAR

STARTCHAR twosuperior
ENCODING 178
SWIDTH 323 0
DWIDTH 4 0
BBX 3 6 -5 4
BITMAP
60
20
20
20
40
E0
ENDCHAR

STARTCHAR threesuperior
ENCODING 179
SWIDTH 323 0
DWIDTH 4 0
BBX 4 6 -5 4
BITMAP
60
10
60
20
20
E0
ENDCHAR

STARTCHAR acute
ENCODING 180
SWIDTH 333 0
DWIDTH 5 0
BBX 4 2 2 8
BITMAP
70
C0
ENDCHAR

STARTCHAR mu
ENCODING 181
SWIDTH 615 0
DWIDTH 9 0
BBX 9 10 0 -3
BITMAP
3180
3300
6300
6300
6300
6700
7E00
C000
C000
C000
ENDCHAR

STARTCHAR paragraph
ENCODING 182
SWIDTH 552 0
DWIDTH 8 0
BBX 8 13 0 -3
BITMAP
7F
F6
F6
F6
76
36
36
36
36
36
36
36
36
ENDCHAR

STARTCHAR periodcentered
ENCODING 183
SWIDTH 260 0
DWIDTH 4 0
BBX 2 2 1 3
BITMAP
C0
C0
ENDCHAR

STARTCHAR cedilla
ENCODING 184
SWIDTH 333 0
DWIDTH 5 0
BBX 3 3 1 -3
BITMAP
40
20
C0
ENDCHAR

STARTCHAR onesuperior
ENCODING 185
SWIDTH 323 0
DWIDTH 4 0
BBX 2 6 -6 4
BITMAP
40
40
C0
80
80
80
ENDCHAR

STARTCHAR ordmasculine
ENCODING 186
SWIDTH 375 0
DWIDTH 5 0
BBX 5 4 1 6
BITMAP
70
D0
98
70
ENDCHAR

STARTCHAR guillemotright
ENCODING 187
SWIDTH 542 0
DWIDTH 8 0
BBX 8 7 0 0
BITMAP
37
66
CC
CC
CC
CC
66
ENDCHAR

STARTCHAR onequarter
ENCODING 188
SWIDTH 844 0
DWIDTH 12 0
BBX 10 10 3 0
BITMAP
4180
4100
C200
8600
84C0
8980
1980
1280
23C0
6080
ENDCHAR

STARTCHAR onehalf
ENCODING 189
SWIDTH 844 0
DWIDTH 12 0
BBX 9 10 3 0
BITMAP
4180
4100
C200
8600
8580
8880
1880
1080
2100
6380
ENDCHAR

STARTCHAR threequarters
ENCODING 190
SWIDTH 844 0
DWIDTH 12 0
BBX 11 10 4 0
BITMAP
60C0
1080
6100
2300
2260
E4C0
0CC0
0940
11E0
3040
ENDCHAR

STARTCHAR questiondown
ENCODING 191
SWIDTH 323 0
DWIDTH 5 0
BBX 5 10 0 -3
BITMAP
38
00
00
30
30
60
E0
C0
C8
70
ENDCHAR

STARTCHAR Agrave
ENCODING 192
SWIDTH 625 0
DWIDTH 9 0
BBX 9 13 0 0
BITMAP
0E00
0300
0000
0E00
0E00
1E00
1A00
1B00
3300
3300
7F00
6300
C380
ENDCHAR

STARTCHAR Aacute
ENCODING 193
SWIDTH 625 0
DWIDTH 9 0
BBX 9 13 0 0
BITMAP
0700
0C00
0000
0E00
0E00
1E00
1A00
1B00
3300
3300
7F00
6300
C380
ENDCHAR

STARTCHAR Acircumflex
ENCODING 194
SWIDTH 625 0
DWIDTH 9 0
BBX 9 13 0 0
BITMAP
0E00
1B00
0000
0E00
0E00
1E00
1A00
1B00
3300
3300
7F00
6300
C380
ENDCHAR

STARTCHAR Atilde
ENCODING 195
SWIDTH 625 0
DWIDTH 9 0
BBX 9 12 0 0
BITMAP
1F00
0000
0E00
0E00
1E00
1A00
1B00
3300
3300
7F00
6300
C380
ENDCHAR

STARTCHAR Adieresis
ENCODING 196
SWIDTH 625 0
DWIDTH 9 0
BBX 9 13 0 0
BITMAP
1B00
1B00
0000
0E00
0E00
1E00
1A00
1B00
3300
3300
7F00
6300
C380
ENDCHAR

STARTCHAR Aring
ENCODING 197
SWIDTH 625 0
DWIDTH 9 0
BBX 9 14 0 0
BITMAP
0E00
0A00
0E00
0000
0E00
0E00
1E00
1A00
1B00
3300
3300
7F00
6300
C380
ENDCHAR

STARTCHAR AE
ENCODING 198
SWIDTH 990 0
DWIDTH 14 0
BBX 15 10 0 0
BITMAP
03FE
06C0
06C0
0CC0
0CFC
1880
3980
3F80
6180
E1FE
ENDCHAR

STARTCHAR Ccedilla
ENCODING 199
SWIDTH 688 0
DWIDTH 10 0
BBX 9 13 1 -3
BITMAP
1F80
3000
6000
C000
C000
C000
C000
C000
6100
3F00
1000
0800
3000
ENDCHAR

STARTCHAR Egrave
ENCODING 200
SWIDTH 583 0
DWIDTH 8 0
BBX 7 13 1 0
BITMAP
38
0C
00
7E
60
60
60
7C
60
E0
C0
C0
FE
ENDCHAR

STARTCHAR Eacute
ENCODING 201
SWIDTH 583 0
DWIDTH 8 0
BBX 7 13 1 0
BITMAP
0E
18
00
7E
60
60
60
7C
60
E0
C0
C0
FE
ENDCHAR

STARTCHAR Ecircumflex
ENCODING 202
SWIDTH 583 0
DWIDTH 8 0
BBX 7 13 1 0
BITMAP
1C
36
00
7E
60
60
60
7C
60
E0
C0
C0
FE
ENDCHAR

STARTCHAR Edieresis
ENCODING 203
SWIDTH 583 0
DWIDTH 8 0
BBX 7 13 1 0
BITMAP
36
36
00
7E
60
60
60
7C
60
E0
C0
C0
FE
ENDCHAR

STARTCHAR Igrave
ENCODING 204
SWIDTH 302 0
DWIDTH 4 0
BBX 4 13 1 0
BITMAP
E0
30
00
60
60
60
60
60
60
E0
C0
C0
C0
ENDCHAR

STARTCHAR Iacute
ENCODING 205
SWIDTH 302 0
DWIDTH 4 0
BBX 5 13 1 0
BITMAP
38
60
00
60
60
60
60
60
60
E0
C0
C0
C0
ENDCHAR

STARTCHAR Icircumflex
ENCODING 206
SWIDTH 302 0
DWIDTH 4 0
BBX 5 13 1 0
BITMAP
70
D8
00
60
60
60
60
60
60
E0
C0
C0
C0
ENDCHAR

STARTCHAR Idieresis
ENCODING 207
SWIDTH 302 0
DWIDTH 4 0
BBX 5 13 1 0
BITMAP
D8
D8
00
60
60
60
60
60
60
E0
C0
C0
C0
ENDCHAR

STARTCHAR Eth
ENCODING 208
SWIDTH 750 0
DWIDTH 11 0
BBX 10 10 0 0
BITMAP
3E00
3380
6180
60C0
F8C0
60C0
61C0
6180
6380
FF00
ENDCHAR

STARTCHAR Ntilde
ENCODING 209
SWIDTH 781 0
DWIDTH 11 0
BBX 10 12 1 0
BITMAP
0F80
0000
70C0
70C0
78C0
78C0
6CC0
6F80
6780
C780
C380
C180
ENDCHAR

STARTCHAR Ograve
ENCODING 210
SWIDTH 833 0
DWIDTH 12 0
BBX 10 13 1 0
BITMAP
0E00
0300
0000
1F00
3180
60C0
C0C0
C0C0
C0C0
C0C0
E1C0
6380
3E00
ENDCHAR

STARTCHAR Oacute
ENCODING 211
SWIDTH 833 0
DWIDTH 12 0
BBX 10 13 1 0
BITMAP
0380
0600
0000
1F00
3180
60C0
C0C0
C0C0
C0C0
C0C0
E1C0
6380
3E00
ENDCHAR

STARTCHAR Ocircumflex
ENCODING 212
SWIDTH 833 0
DWIDTH 12 0
BBX 10 13 1 0
BITMAP
0E00
1B00
0000
1F00
3180
60C0
C0C0
C0C0
C0C0
C0C0
E1C0
6380
3E00
ENDCHAR

STARTCHAR Otilde
ENCODING 213
SWIDTH 833 0
DWIDTH 12 0
BBX 10 12 1 0
BITMAP
0F80
0000
1F00
3180
60C0
C0C0
C0C0
C0C0
C0C0
E1C0
6380
3E00
ENDCHAR

STARTCHAR Odieresis
ENCODING 214
SWIDTH 833 0
DWIDTH 12 0
BBX 10 13 1 0
BITMAP
1B00
1B00
0000
1F00
3180
60C0
C0C0
C0C0
C0C0
C0C0
E1C0
6380
3E00
ENDCHAR

STARTCHAR multiply
ENCODING 215
SWIDTH 584 0
DWIDTH 8 0
BBX 7 7 1 2
BITMAP
44
EE
7C
38
7C
EE
44
ENDCHAR

STARTCHAR Oslash
ENCODING 216
SWIDTH 833 0
DWIDTH 12 0
BBX 10 10 1 0
BITMAP
1FC0
3180
63C0
C6C0
C4C0
C8C0
D0C0
E1C0
6380
BE00
ENDCHAR

STARTCHAR Ugrave
ENCODING 217
SWIDTH 750 0
DWIDTH 11 0
BBX 10 13 1 0
BITMAP
1C00
0600
0000
61C0
6180
6180
C180
C180
C180
C180
C300
6300
3E00
ENDCHAR

STARTCHAR Uacute
ENCODING 218
SWIDTH 750 0
DWIDTH 11 0
BBX 10 13 1 0
BITMAP
0700
0C00
0000
61C0
6180
6180
C180
C180
C180
C180
C300
6300
3E00
ENDCHAR

STARTCHAR Ucircumflex
ENCODING 219
SWIDTH 750 0
DWIDTH 11 0
BBX 10 13 1 0
BITMAP
0E00
1B00
0000
61C0
6180
6180
C180
C180
C180
C180
C300
6300
3E00
ENDCHAR

STARTCHAR Udieresis
ENCODING 220
SWIDTH 750 0
DWIDTH 11 0
BBX 10 13 1 0
BITMAP
1B00
1B00
0000
61C0
6180
6180
C180
C180
C180
C180
C300
6300
3E00
ENDCHAR

STARTCHAR Yacute
ENCODING 221
SWIDTH 563 0
DWIDTH 8 0
BBX 8 13 1 0
BITMAP
0E
18
00
C7
EE
6C
7C
78
30
30
30
30
70
ENDCHAR

STARTCHAR Thorn
ENCODING 222
SWIDTH 583 0
DWIDTH 8 0
BBX 7 10 1 0
BITMAP
60
60
7C
66
66
66
66
FC
C0
C0
ENDCHAR

STARTCHAR germandbls
ENCODING 223
SWIDTH 552 0
DWIDTH 8 0
BBX 7 10 0 0
BITMAP
3C
66
66
6E
6C
64
C6
C6
CC
D8
ENDCHAR

STARTCHAR agrave
ENCODING 224
SWIDTH 552 0
DWIDTH 8 0
BBX 7 10 1 0
BITMAP
38
0C
00
3E
66
CC
CC
CC
CC
7C
ENDCHAR

STARTCHAR aacute
ENCODING 225
SWIDTH 552 0
DWIDTH 8 0
BBX 7 10 1 0
BITMAP
0E
18
00
3E
66
CC
CC
CC
CC
7C
ENDCHAR

STARTCHAR acircumflex
ENCODING 226
SWIDTH 552 0
DWIDTH 8 0
BBX 7 10 1 0
BITMAP
38
6C
00
3E
66
CC
CC
CC
CC
7C
ENDCHAR

STARTCHAR atilde
ENCODING 227
SWIDTH 552 0
DWIDTH 8 0
BBX 7 9 1 0
BITMAP
3E
00
3E
66
CC
CC
CC
CC
7C
ENDCHAR

STARTCHAR adieresis
ENCODING 228
SWIDTH 552 0
DWIDTH 8 0
BBX 7 10 1 0
BITMAP
6C
6C
00
3E
66
CC
CC
CC
CC
7C
ENDCHAR

STARTCHAR aring
ENCODING 229
SWIDTH 552 0
DWIDTH 8 0
BBX 7 11 1 0
BITMAP
1C
14
1C
00
3E
66
CC
CC
CC
CC
7C
ENDCHAR

STARTCHAR ae
ENCODING 230
SWIDTH 688 0
DWIDTH 10 0
BBX 9 7 0 0
BITMAP
7F00
4D80
1D80
7F80
D800
DC80
6780
ENDCHAR

STARTCHAR ccedilla
ENCODING 231
SWIDTH 469 0
DWIDTH 7 0
BBX 6 10 0 -3
BITMAP
3C
60
C0
C0
C0
C8
78
20
10
60
ENDCHAR

STARTCHAR egrave
ENCODING 232
SWIDTH 510 0
DWIDTH 7 0
BBX 6 10 0 0
BITMAP
38
0C
00
38
6C
CC
FC
C0
C4
78
ENDCHAR

STARTCHAR eacute
ENCODING 233
SWIDTH 510 0
DWIDTH 7 0
BBX 6 10 0 0
BITMAP
1C
30
00
38
6C
CC
FC
C0
C4
78
ENDCHAR

STARTCHAR ecircumflex
ENCODING 234
SWIDTH 510 0
DWIDTH 7 0
BBX 6 10 0 0
BITMAP
38
6C
00
38
6C
CC
FC
C0
C4
78
ENDCHAR

STARTCHAR edieresis
ENCODING 235
SWIDTH 510 0
DWIDTH 7 0
BBX 6 10 0 0
BITMAP
6C
6C
00
38
6C
CC
FC
C0
C4
78
ENDCHAR

STARTCHAR igrave
ENCODING 236
SWIDTH 260 0
DWIDTH 4 0
BBX 4 10 0 0
BITMAP
E0
30
00
60
60
E0
C0
C0
C0
C0
ENDCHAR

STARTCHAR iacute
ENCODING 237
SWIDTH 260 0
DWIDTH 4 0
BBX 5 10 0 0
BITMAP
38
60
00
60
60
E0
C0
C0
C0
C0
ENDCHAR

STARTCHAR icircumflex
ENCODING 238
SWIDTH 260 0
DWIDTH 4 0
BBX 5 10 0 0
BITMAP
70
D8
00
60
60
E0
C0
C0
C0
C0
ENDCHAR

STARTCHAR idieresis
ENCODING 239
SWIDTH 260 0
DWIDTH 4 0
BBX 5 10 0 0
BITMAP
D8
D8
00
60
60
E0
C0
C0
C0
C0
ENDCHAR

STARTCHAR eth
ENCODING 240
SWIDTH 552 0
DWIDTH 8 0
BBX 7 10 0 0
BITMAP
0E
34
06
3E
66
C6
C6
C6
CC
78
ENDCHAR

STARTCHAR ntilde
ENCODING 241
SWIDTH 552 0
DWIDTH 8 0
BBX 7 9 0 0
BITMAP
3E
00
7C
66
E6
CE
CC
CC
CC
ENDCHAR

STARTCHAR ograve
ENCODING 242
SWIDTH 563 0
DWIDTH 8 0
BBX 7 10 0 0
BITMAP
38
0C
00
3C
6C
C6
C6
C6
CC
78
ENDCHAR

STARTCHAR oacute
ENCODING 243
SWIDTH 563 0
DWIDTH 8 0
BBX 7 10 0 0
BITMAP
0E
18
00
3C
6C
C6
C6
C6
CC
78
ENDCHAR

STARTCHAR ocircumflex
ENCODING 244
SWIDTH 563 0
DWIDTH 8 0
BBX 7 10 0 0
BITMAP
1C
36
00
3C
6C
C6
C6
C6
CC
78
ENDCHAR

STARTCHAR otilde
ENCODING 245
SWIDTH 563 0
DWIDTH 8 0
BBX 7 9 0 0
BITMAP
3E
00
3C
6C
C6
C6
C6
CC
78
ENDCHAR

STARTCHAR odieresis
ENCODING 246
SWIDTH 563 0
DWIDTH 8 0
BBX 7 10 0 0
BITMAP
36
36
00
3C
6C
C6
C6
C6
CC
78
ENDCHAR

STARTCHAR divide
ENCODING 247
SWIDTH 584 0
DWIDTH 8 0
BBX 7 8 1 2
BITMAP
30
10
00
FE
FE
00
30
18
ENDCHAR

STARTCHAR oslash
ENCODING 248
SWIDTH 563 0
DWIDTH 8 0
BBX 7 7 0 0
BITMAP
3E
6C
CE
D6
E6
CC
F8
ENDCHAR

STARTCHAR ugrave
ENCODING 249
SWIDTH 552 0
DWIDTH 8 0
BBX 7 10 1 0
BITMAP
38
0C
00
E6
CC
CC
CC
CC
CC
FC
ENDCHAR

STARTCHAR uacute
ENCODING 250
SWIDTH 552 0
DWIDTH 8 0
BBX 7 10 1 0
BITMAP
0E
18
00
E6
CC
CC
CC
CC
CC
FC
ENDCHAR

STARTCHAR ucircumflex
ENCODING 251
SWIDTH 552 0
DWIDTH 8 0
BBX 7 10 1 0
BITMAP
38
6C
00
E6
CC
CC
CC
CC
CC
FC
ENDCHAR

STARTCHAR udieresis
ENCODING 252
SWIDTH 552 0
DWIDTH 8 0
BBX 7 10 1 0
BITMAP
6C
6C
00
E6
CC
CC
CC
CC
CC
FC
ENDCHAR

STARTCHAR yacute
ENCODING 253
SWIDTH 490 0
DWIDTH 7 0
BBX 7 13 0 -3
BITMAP
1C
30
00
C6
EC
6C
78
78
30
30
60
60
C0
ENDCHAR

STARTCHAR thorn
ENCODING 254
SWIDTH 583 0
DWIDTH 8 0
BBX 7 13 0 -3
BITMAP
30
70
60
7C
66
66
66
66
6C
F8
C0
C0
C0
ENDCHAR

STARTCHAR ydieresis
ENCODING 255
SWIDTH 490 0
DWIDTH 7 0
BBX 7 13 0 -3
BITMAP
6C
6C
00
C6
EC
6C
78
78
30
30
60
60
C0
ENDCHAR
ENDFONT
